<svg width="20" height="23" viewBox="0 0 20 23" fill="none" xmlns="http://www.w3.org/2000/svg">
<path id="keranjang" d="M6 18.0721C4.9 18.0721 4.01 19.0412 4.01 20.2257C4.01 21.4102 4.9 22.3793 6 22.3793C7.1 22.3793 8 21.4102 8 20.2257C8 19.0412 7.1 18.0721 6 18.0721ZM0 0.843262V2.99687H2L5.6 11.1698L4.25 13.808C4.09 14.1095 4 14.4648 4 14.8417C4 16.0262 4.9 16.9953 6 16.9953H18V14.8417H6.42C6.28 14.8417 6.17 14.7233 6.17 14.5725L6.2 14.4433L7.1 12.6881H14.55C15.3 12.6881 15.96 12.2466 16.3 11.579L19.88 4.59054C19.96 4.43979 20 4.25673 20 4.07367C20 3.48143 19.55 2.99687 19 2.99687H4.21L3.27 0.843262H0ZM16 18.0721C14.9 18.0721 14.01 19.0412 14.01 20.2257C14.01 21.4102 14.9 22.3793 16 22.3793C17.1 22.3793 18 21.4102 18 20.2257C18 19.0412 17.1 18.0721 16 18.0721Z" fill="black"/>
</svg>
