<svg width="35" height="35" viewBox="0 0 35 35" fill="none" xmlns="http://www.w3.org/2000/svg">
<path id="Vector" d="M17.5 0C27.16 0 35 7.84 35 17.5C35 27.16 27.16 35 17.5 35C7.84 35 0 27.16 0 17.5C0 7.84 7.84 0 17.5 0ZM7.04025 23.478C9.60925 27.3105 13.4662 29.75 17.78 29.75C22.092 29.75 25.9507 27.3123 28.518 23.478C25.6055 20.756 21.7664 19.2444 17.78 19.25C13.793 19.244 9.95315 20.7556 7.04025 23.478ZM17.5 15.75C18.8924 15.75 20.2277 15.1969 21.2123 14.2123C22.1969 13.2277 22.75 11.8924 22.75 10.5C22.75 9.10761 22.1969 7.77226 21.2123 6.78769C20.2277 5.80312 18.8924 5.25 17.5 5.25C16.1076 5.25 14.7723 5.80312 13.7877 6.78769C12.8031 7.77226 12.25 9.10761 12.25 10.5C12.25 11.8924 12.8031 13.2277 13.7877 14.2123C14.7723 15.1969 16.1076 15.75 17.5 15.75Z" fill="white"/>
</svg>
