<svg width="35" height="39" viewBox="0 0 35 39" fill="none" xmlns="http://www.w3.org/2000/svg">
<path id="Vector" d="M17.5 0.921875C27.16 0.921875 35 9.36402 35 19.7659C35 30.1679 27.16 38.61 17.5 38.61C7.84 38.61 0 30.1679 0 19.7659C0 9.36402 7.84 0.921875 17.5 0.921875ZM7.04025 26.2031C9.60925 30.3299 13.4662 32.9568 17.78 32.9568C22.092 32.9568 25.9507 30.3318 28.518 26.2031C25.6055 23.2721 21.7664 21.6443 17.78 21.6503C13.793 21.6439 9.95315 23.2716 7.04025 26.2031ZM17.5 17.8815C18.8924 17.8815 20.2277 17.2859 21.2123 16.2257C22.1969 15.1656 22.75 13.7276 22.75 12.2283C22.75 10.729 22.1969 9.29107 21.2123 8.23088C20.2277 7.1707 18.8924 6.57509 17.5 6.57509C16.1076 6.57509 14.7723 7.1707 13.7877 8.23088C12.8031 9.29107 12.25 10.729 12.25 12.2283C12.25 13.7276 12.8031 15.1656 13.7877 16.2257C14.7723 17.2859 16.1076 17.8815 17.5 17.8815Z" fill="black"/>
</svg>
