<svg width="21" height="24" viewBox="0 0 21 24" fill="none" xmlns="http://www.w3.org/2000/svg">
<path id="Vector" d="M15.0086 14.9885H14.06L13.7238 14.6395C14.9005 13.1655 15.6089 11.252 15.6089 9.17047C15.6089 4.52895 12.1149 0.766602 7.80446 0.766602C3.494 0.766602 0 4.52895 0 9.17047C0 13.812 3.494 17.5743 7.80446 17.5743C9.73756 17.5743 11.5146 16.8115 12.8834 15.5445L13.2075 15.9065V16.9279L19.211 23.3795L21 21.4531L15.0086 14.9885ZM7.80446 14.9885C4.81475 14.9885 2.40137 12.3898 2.40137 9.17047C2.40137 5.95114 4.81475 3.35241 7.80446 3.35241C10.7942 3.35241 13.2075 5.95114 13.2075 9.17047C13.2075 12.3898 10.7942 14.9885 7.80446 14.9885Z" fill="black"/>
</svg>
