<svg width="14" height="15" viewBox="0 0 14 15" fill="none" xmlns="http://www.w3.org/2000/svg">
<path id="Vector" d="M10.5095 13.3597H11.1111H11.7192C11.7258 13.3944 11.7292 13.4296 11.7292 13.4649C11.7292 13.7646 11.4844 14.0614 11.1111 14.0614C10.7507 14.0614 10.5 13.7778 10.5 13.4649C10.5 13.4293 10.5032 13.3941 10.5095 13.3597ZM3.57683 13.3083C3.76813 13.342 3.96519 13.3597 4.16667 13.3597H4.77473C4.78133 13.3944 4.78472 13.4296 4.78472 13.4649C4.78472 13.7646 4.54 14.0614 4.16667 14.0614C3.80629 14.0614 3.55556 13.7778 3.55556 13.4649C3.55556 13.4114 3.56288 13.3588 3.57683 13.3083Z" fill="#0E3665" stroke="#0E3665" stroke-width="4"/>
</svg>
