<svg width="35" height="30" viewBox="0 0 35 30" fill="none" xmlns="http://www.w3.org/2000/svg">
<g id="email">
<g id="Group 7">
<path id="Vector" d="M35.0002 7.62183L30.8336 10.1779L26.667 14.5929V29.7432H32.5002C33.881 29.7432 35.0002 28.4949 35.0002 26.9548V7.62183Z" fill="#4CAF50"/>
<path id="Vector_2" d="M0 7.62183L3.01161 9.21122L8.33319 14.5929V29.7432H2.49996C1.11915 29.7432 0 28.4949 0 26.9548V7.62183Z" fill="#1E88E5"/>
<path id="Vector_3" d="M26.6663 2.97461L17.4998 10.6427L8.33332 2.97461L7.5 8.36554L8.33332 14.593L17.4998 22.2611L26.6663 14.593L27.4996 8.36554L26.6663 2.97461Z" fill="#E53935"/>
<path id="Vector_4" d="M0 3.99486V7.62166L8.33319 14.5927V2.97431L5.7299 0.798415C5.10991 0.279771 4.35659 0 3.5816 0C1.6033 0 0 1.7883 0 3.99486Z" fill="#C62828"/>
<path id="Vector_5" d="M35.0002 3.99486V7.62166L26.667 14.5927V2.97431L29.2703 0.798415C29.8903 0.279771 30.6436 0 31.4186 0C33.3969 0 35.0002 1.7883 35.0002 3.99486Z" fill="#FBC02D"/>
</g>
</g>
</svg>
