<svg width="35" height="35" viewBox="0 0 35 35" fill="none" xmlns="http://www.w3.org/2000/svg">
<g id="viber-square-color-icon 1" clip-path="url(#clip0_295_937)">
<path id="Vector" fill-rule="evenodd" clip-rule="evenodd" d="M7.17774 0H27.8223C29.7243 0.00526154 31.5469 0.763175 32.8919 2.10812C34.2368 3.45307 34.9947 5.2757 35 7.17774V27.8223C34.9947 29.7243 34.2368 31.5469 32.8919 32.8919C31.5469 34.2368 29.7243 34.9947 27.8223 35H7.17774C5.2757 34.9947 3.45307 34.2368 2.10812 32.8919C0.763175 31.5469 0.00526154 29.7243 0 27.8223L0 7.17774C0.00526154 5.2757 0.763175 3.45307 2.10812 2.10812C3.45307 0.763175 5.2757 0.00526154 7.17774 0Z" fill="#7B519D"/>
<path id="Vector_2" fill-rule="evenodd" clip-rule="evenodd" d="M19.1174 10.5871C20.9033 10.8492 22.2847 11.6781 23.1904 13.0253C23.707 13.8062 24.0275 14.7003 24.1247 15.6315C24.1675 15.9948 24.1675 16.3619 24.1247 16.7253C24.0665 16.8452 23.9731 16.9446 23.8569 17.0101C23.7768 17.0417 23.6912 17.0569 23.6051 17.055C23.5191 17.053 23.4342 17.0339 23.3556 16.9987C23.1278 16.8848 23.0708 16.7139 23.0708 16.2069C23.071 15.4449 22.8863 14.6942 22.5325 14.0194C22.1487 13.3129 21.5821 12.7226 20.8919 12.3104C20.1947 11.926 19.4238 11.694 18.6303 11.6296C18.5261 11.6362 18.4217 11.6212 18.3237 11.5854C18.2256 11.5496 18.1361 11.4939 18.0606 11.4217C17.9793 11.3323 17.9307 11.218 17.923 11.0974C17.9152 10.9768 17.9487 10.8571 18.0179 10.758C18.1717 10.5188 18.4053 10.4732 19.1088 10.5871H19.1174Z" fill="white"/>
<path id="Vector_3" fill-rule="evenodd" clip-rule="evenodd" d="M12.191 8.77273C12.3146 8.81889 12.433 8.87809 12.5441 8.94932C13.1138 9.3196 14.6604 11.3106 15.1674 12.3046C15.4523 12.8743 15.5548 13.293 15.4523 13.6035C15.3497 13.9139 15.2045 14.1162 14.5066 14.6773C14.3039 14.8364 14.1134 15.0106 13.937 15.1985C13.8159 15.3992 13.7492 15.6279 13.7433 15.8622C13.7433 16.3549 14.0651 17.2464 14.4838 17.93C14.8951 18.5706 15.3882 19.1547 15.9507 19.6675C16.526 20.2171 17.1785 20.6796 17.8876 21.0404C18.7421 21.4676 19.2775 21.5787 19.6621 21.3993C19.7432 21.3616 19.8212 21.3178 19.8956 21.2683C19.9241 21.2426 20.1491 20.9663 20.3969 20.6587C20.8754 20.0606 20.9837 19.9637 21.3084 19.8498C21.5157 19.7804 21.7353 19.755 21.953 19.7751C22.1707 19.7952 22.3819 19.8604 22.573 19.9666C23.084 20.2487 23.5803 20.5567 24.0599 20.8894C24.7785 21.4068 25.4652 21.967 26.1163 22.5671C26.2677 22.7621 26.362 22.9953 26.3887 23.2407C26.4153 23.4861 26.3733 23.7341 26.2673 23.9571C25.8624 24.7512 25.2992 25.4539 24.6124 26.0221C24.2149 26.3661 23.7134 26.5667 23.1883 26.5917C22.8046 26.6206 22.4206 26.5406 22.0803 26.361C18.0907 24.76 14.621 22.0877 12.0542 18.6393C10.7344 16.9127 9.67846 14.9996 8.9211 12.9626C8.50525 11.8233 8.48531 11.322 8.82711 10.7352C9.18402 10.2843 9.59759 9.88124 10.0576 9.53607C10.8152 8.96641 11.1656 8.76418 11.4447 8.70437C11.6916 8.66841 11.9435 8.69185 12.1796 8.77273H12.191Z" fill="white"/>
<path id="Vector_4" fill-rule="evenodd" clip-rule="evenodd" d="M18.9152 8.45381C19.8659 8.56253 20.7902 8.83628 21.6468 9.26273C22.4695 9.65165 23.2131 10.1896 23.84 10.8492C24.4638 11.4396 24.9753 12.1383 25.3496 12.9114C25.9453 14.173 26.2657 15.5468 26.2895 16.9418C26.3123 17.4573 26.2895 17.5712 26.1784 17.7194C26.1214 17.7845 26.0498 17.8352 25.9693 17.8673C25.8889 17.8994 25.802 17.9119 25.7158 17.9039C25.6296 17.8958 25.5465 17.8674 25.4735 17.8209C25.4004 17.7745 25.3394 17.7114 25.2955 17.6368C25.2252 17.4417 25.1961 17.2341 25.21 17.0272C25.1987 16.5145 25.1502 16.0033 25.0647 15.4977C24.7807 13.6861 23.8006 12.0571 22.3332 10.9575C21.1426 10.0497 19.697 9.53856 18.2003 9.49629C17.6307 9.46211 17.5424 9.44217 17.417 9.34533C17.3586 9.29509 17.311 9.23353 17.277 9.16436C17.2431 9.09518 17.2235 9.01984 17.2195 8.94289C17.2155 8.86594 17.2272 8.78898 17.2538 8.71666C17.2804 8.64435 17.3214 8.57818 17.3743 8.52217C17.511 8.39399 17.6079 8.3769 18.0892 8.39115C18.337 8.39115 18.7045 8.43102 18.9067 8.45381H18.9152Z" fill="white"/>
<path id="Vector_5" fill-rule="evenodd" clip-rule="evenodd" d="M19.7443 12.8174C20.2682 12.9139 20.7541 13.1568 21.1457 13.5181C21.6466 14.001 21.957 14.6481 22.0201 15.341C22.0998 15.8651 22.0685 16.0702 21.8834 16.2411C21.7861 16.3189 21.6661 16.3627 21.5416 16.3657C21.4171 16.3688 21.2951 16.331 21.1941 16.2582C21.0517 16.1499 21.0089 16.0388 20.9776 15.7369C20.9559 15.4098 20.8778 15.089 20.7469 14.7884C20.4877 14.2188 20.032 13.9339 19.2629 13.8513C18.9012 13.8058 18.7901 13.7659 18.6733 13.6263C18.6236 13.5637 18.5882 13.491 18.5695 13.4133C18.5508 13.3356 18.5492 13.2548 18.5649 13.1764C18.5807 13.098 18.6133 13.0241 18.6605 12.9596C18.7078 12.8951 18.7685 12.8417 18.8385 12.8032C18.9649 12.7448 19.1068 12.7288 19.243 12.7576C19.4112 12.767 19.5786 12.787 19.7443 12.8174Z" fill="white"/>
</g>
<defs>
<clipPath id="clip0_295_937">
<rect width="35" height="35" fill="white"/>
</clipPath>
</defs>
</svg>
